<svg width="43" height="43" viewBox="0 0 43 43" fill="none" xmlns="http://www.w3.org/2000/svg">
<mask id="mask0_28_255" style="mask-type:alpha" maskUnits="userSpaceOnUse" x="4" y="4" width="35" height="36">
<path d="M37.0398 17.9271L33.5589 17.4219C33.4402 17.0942 33.3271 16.7743 33.1874 16.4677L35.3318 13.6203C35.9364 12.811 35.8147 11.6195 35.0424 10.8476L32.5286 8.3304C32.096 7.89739 31.5147 7.65186 30.9312 7.65186C30.4986 7.65186 30.094 7.78946 29.7573 8.04058L26.9128 10.1777C26.5994 10.0328 26.2799 9.91753 25.9582 9.79799L25.4513 6.36487C25.3055 5.35222 24.3724 4.73001 23.2806 4.73001H19.7202C18.6284 4.73001 17.6953 5.35222 17.5496 6.3653L17.0422 9.7881C16.7205 9.90807 16.3993 10.025 16.085 10.1717L13.2423 8.03886C12.906 7.78774 12.4997 7.65057 12.0679 7.65057C11.4836 7.65057 10.9001 7.8961 10.4675 8.32997L7.9494 10.8463C7.17583 11.6203 7.0464 12.8123 7.65141 13.6207L9.77561 16.466C9.6307 16.779 9.48966 17.0994 9.37098 17.4228L5.96194 17.928C4.9738 18.0699 4.29999 18.9832 4.29999 20.0986V23.6573C4.29999 24.7727 4.97294 25.6865 5.96065 25.8293L9.44236 26.3349C9.56104 26.663 9.6737 26.9829 9.81345 27.2891L7.66904 30.1366C7.06403 30.9463 7.18572 32.1378 7.958 32.9096L10.4718 35.4269C10.9039 35.8603 11.4849 36.1071 12.0684 36.1071C12.5009 36.1071 12.9073 35.9725 13.2436 35.7218L16.0876 33.5916C16.4006 33.7365 16.721 33.8647 17.0426 33.9842L17.55 37.4427C17.6953 38.4558 18.6284 39.13 19.7202 39.13H23.2806C24.3724 39.13 25.3055 38.4566 25.4517 37.4427L25.9591 33.9687C26.2781 33.85 26.5989 33.7331 26.9167 33.5852L29.7594 35.7175C30.0944 35.9687 30.5012 36.1058 30.9333 36.1058C31.5173 36.1058 32.1016 35.8603 32.5346 35.4269L35.0519 32.9101C35.8254 32.1361 35.9549 30.945 35.3503 30.1353L33.2261 27.2908C33.3723 26.9756 33.5125 26.6549 33.6307 26.3341L37.0406 25.8288C38.0275 25.6865 38.7 24.7727 38.7 23.6586V20.0995C38.7 18.9832 38.0275 18.0699 37.0398 17.9271ZM31.7692 25.0415C31.5736 25.6775 31.3134 26.3035 30.997 26.9008L30.6749 27.5058L33.5486 31.3436C33.5413 31.3543 33.5327 31.3677 33.5193 31.3806L31.0021 33.8986C30.9905 33.9107 30.978 33.921 30.9677 33.9274L27.1283 31.0611L26.5232 31.3836C25.9066 31.7108 25.2814 31.9761 24.6631 32.1662L24.0082 32.376L23.3215 37.2724C23.3107 37.2759 23.2974 37.41 23.2806 37.41H19.7202C19.7047 37.41 19.6914 37.2754 19.6802 37.2733L18.9939 32.4143L18.3378 32.1722C17.7039 31.9783 17.0787 31.7052 16.4784 31.3879L15.8726 31.0593L12.0279 33.9249C12.0189 33.9184 12.0095 33.909 11.9996 33.8991L9.48321 31.381C9.47203 31.3702 9.46214 31.3578 9.45526 31.3483L12.3328 27.5075L12.006 26.9004C11.7037 26.3311 11.4453 25.723 11.2359 25.0411L11.0149 24.387L6.20188 23.7102C6.20016 23.6947 6.01999 23.6771 6.01999 23.6586V20.0995C6.01999 20.0802 6.20016 20.063 6.20231 20.0479L10.9805 19.3707L11.2066 18.7166C11.4027 18.0794 11.6753 17.4533 11.9914 16.8569L12.3191 16.2514L9.44924 12.4133C9.45612 12.4025 9.46687 12.39 9.4802 12.3767L11.9974 9.85948C12.0095 9.84744 12.0224 9.83841 12.0331 9.8311L15.8726 12.6996L16.4784 12.3797C17.0959 12.0521 17.7211 11.7936 18.3378 11.604L18.9931 11.4075L19.6789 6.53601C19.6897 6.533 19.7039 6.45001 19.7202 6.45001H23.2806C23.2965 6.45001 23.3099 6.53214 23.321 6.53515L24.0077 11.3572L24.6631 11.5842C25.302 11.7807 25.9273 12.0538 26.5224 12.3698L27.1283 12.6971L30.9725 9.8311C30.9811 9.83798 30.9909 9.84701 31.0008 9.85733L33.5163 12.3746C33.5279 12.3862 33.5383 12.3982 33.5447 12.4081L30.6684 16.2489L30.9944 16.8556C31.2924 17.4193 31.559 18.0445 31.7645 18.7153L31.9864 19.3694L36.7977 20.0466C36.7998 20.0621 36.98 20.0793 36.98 20.0986V23.6573C36.98 23.6775 36.7998 23.6943 36.7977 23.7094L32.0199 24.3862L31.7692 25.0415Z" fill="black"/>
<path d="M21.5004 29.2275C17.3681 29.2275 14.0064 25.8649 14.0064 21.7326C14.0064 17.6003 17.3681 14.2382 21.5004 14.2382C25.6319 14.2382 28.9949 17.5999 28.9949 21.7326C28.9949 25.8645 25.6319 29.2275 21.5004 29.2275ZM21.5004 15.9904C18.3343 15.9904 15.7582 18.5665 15.7582 21.7326C15.7582 24.8987 18.3343 27.4749 21.5004 27.4749C24.6661 27.4749 27.2426 24.9 27.2426 21.7326C27.2422 18.5665 24.6661 15.9904 21.5004 15.9904Z" fill="black"/>
</mask>
<g mask="url(#mask0_28_255)">
<rect x="4.29999" y="4.73001" width="34.4" height="34.4" fill="white"/>
</g>
</svg>
