<svg width="20" height="14" viewBox="0 0 20 14" fill="none" xmlns="http://www.w3.org/2000/svg">
<mask id="mask0_1_417" style="mask-type:alpha" maskUnits="userSpaceOnUse" x="0" y="0" width="20" height="14">
<path d="M19.9817 13.7401C19.9926 13.7039 20 13.6658 20 13.6256V0.373902C20 0.333494 19.9926 0.295081 19.9814 0.258664C19.9798 0.253675 19.9789 0.248686 19.977 0.243697C19.9622 0.201044 19.9404 0.162631 19.913 0.128958C19.9111 0.126713 19.9109 0.123969 19.9091 0.121724C19.9079 0.120477 19.9065 0.119978 19.9053 0.118731C19.8761 0.0853065 19.8415 0.0583676 19.8028 0.0381634C19.7998 0.0366668 19.7975 0.0346712 19.7944 0.0331746C19.7578 0.0154648 19.7179 0.00548761 19.6759 0.0024944C19.6717 0.00224497 19.6678 0.00124696 19.6636 0.00124696C19.6596 0.000997528 19.6562 0 19.6522 0H0.34824C0.344296 0 0.340583 0.000997528 0.336639 0.00124696C0.332927 0.0014964 0.329215 0.00224497 0.325503 0.0024944C0.283046 0.00548761 0.242445 0.0157144 0.205324 0.0336737C0.203004 0.0346714 0.201148 0.0364173 0.198828 0.0374151C0.159387 0.0576192 0.124355 0.0850569 0.0948901 0.11898C0.09373 0.120227 0.092338 0.120477 0.0911779 0.121724C0.0893219 0.12372 0.0890899 0.126463 0.0872339 0.128708C0.0598573 0.162382 0.0378168 0.201044 0.0229685 0.243697C0.0211125 0.248686 0.0201844 0.253675 0.0185604 0.258913C0.00742415 0.29533 0 0.333743 0 0.374151V13.6261C0 13.667 0.00765612 13.7059 0.0190244 13.7428C0.0206484 13.7478 0.0215765 13.7526 0.0232005 13.7575C0.0382808 13.8005 0.0605532 13.8391 0.0881619 13.8728C0.0897859 13.8748 0.09025 13.8773 0.091874 13.8793C0.093266 13.881 0.095122 13.882 0.0967461 13.8838C0.108114 13.8965 0.120643 13.9077 0.133635 13.9187C0.139435 13.9234 0.144539 13.9292 0.150571 13.9337C0.165884 13.9451 0.182356 13.9544 0.199292 13.9628C0.203468 13.9648 0.207181 13.9681 0.211357 13.9698C0.25335 13.989 0.299518 14 0.348008 14H19.6518C19.7003 14 19.7464 13.9893 19.7884 13.9698C19.7949 13.9668 19.8009 13.9623 19.8072 13.9588C19.8216 13.9511 19.836 13.9431 19.8492 13.9334C19.8562 13.9282 19.8624 13.9214 19.8692 13.9157C19.881 13.9055 19.8926 13.8952 19.9028 13.8835C19.9046 13.8815 19.9067 13.88 19.9086 13.878C19.9104 13.8758 19.9109 13.8728 19.9128 13.8705C19.9399 13.8371 19.9617 13.7987 19.9766 13.7563C19.9789 13.7508 19.98 13.7456 19.9817 13.7401ZM0.696247 1.22248L6.55368 6.97468L0.696247 12.7728V1.22248ZM12.7016 6.69282C12.6775 6.70978 12.6519 6.724 12.6318 6.74795C12.6241 6.75693 12.6215 6.76865 12.6148 6.77813L10.0001 9.34581L1.24517 0.748054H18.7551L12.7016 6.69282ZM7.06966 7.48128L9.76533 10.1285C9.83191 10.1939 9.9159 10.2266 10.0001 10.2266C10.0843 10.2266 10.1683 10.1939 10.2347 10.1285L12.8969 7.51421L18.7534 13.2517H1.24007L7.06966 7.48128ZM13.4131 7.00736L19.304 1.22248V12.7788L13.4131 7.00736Z" fill="black"/>
</mask>
<g mask="url(#mask0_1_417)">
<rect x="-14" y="-15" width="42" height="38" fill="#B1AEAE"/>
</g>
</svg>
