<svg width="78" height="22" viewBox="0 0 78 22" fill="none" xmlns="http://www.w3.org/2000/svg">
<path fill-rule="evenodd" clip-rule="evenodd" d="M0 0H6.31579L8.84211 4.42106C9.05264 4.84211 9.34737 5.93685 8.84211 6.94737C8.33685 7.9579 6.94737 9.89474 6.31579 10.7368L0 0ZM11.3684 0H24L11.3684 21.4737L7.57895 16.4211L13.8947 6.94737C14.6459 5.44516 14.0571 4.61288 13.1907 3.38824C12.6001 2.55337 11.8805 1.53615 11.3684 0Z" fill="url(#paint0_linear_10_28)"/>
<path fill-rule="evenodd" clip-rule="evenodd" d="M0 0H6.31579L8.84211 4.42106C9.05264 4.84211 9.34737 5.93685 8.84211 6.94737C8.33685 7.9579 6.94737 9.89474 6.31579 10.7368L0 0ZM11.3684 0H24L11.3684 21.4737L7.57895 16.4211L13.8947 6.94737C14.6459 5.44516 14.0571 4.61288 13.1907 3.38824C12.6001 2.55337 11.8805 1.53615 11.3684 0Z" fill="url(#paint1_linear_10_28)" fill-opacity="0.8"/>
<path fill-rule="evenodd" clip-rule="evenodd" d="M0 0H6.31579L8.84211 4.42106C9.05264 4.84211 9.34737 5.93685 8.84211 6.94737C8.33685 7.9579 6.94737 9.89474 6.31579 10.7368L0 0ZM11.3684 0H24L11.3684 21.4737L7.57895 16.4211L13.8947 6.94737C14.6459 5.44516 14.0571 4.61288 13.1907 3.38824C12.6001 2.55337 11.8805 1.53615 11.3684 0Z" fill="#BFCDDA"/>
<path d="M41.815 5.47L38.08 16H34.87L31.135 5.47H33.865L36.475 13.42L39.1 5.47H41.815ZM45.452 5.47V16H42.887V5.47H45.452ZM46.8759 10.72C46.8759 9.68 47.1009 8.755 47.5509 7.945C48.0009 7.125 48.6259 6.49 49.4259 6.04C50.2359 5.58 51.1509 5.35 52.1709 5.35C53.4209 5.35 54.4909 5.68 55.3809 6.34C56.2709 7 56.8659 7.9 57.1659 9.04H54.3459C54.1359 8.6 53.8359 8.265 53.4459 8.035C53.0659 7.805 52.6309 7.69 52.1409 7.69C51.3509 7.69 50.7109 7.965 50.2209 8.515C49.7309 9.065 49.4859 9.8 49.4859 10.72C49.4859 11.64 49.7309 12.375 50.2209 12.925C50.7109 13.475 51.3509 13.75 52.1409 13.75C52.6309 13.75 53.0659 13.635 53.4459 13.405C53.8359 13.175 54.1359 12.84 54.3459 12.4H57.1659C56.8659 13.54 56.2709 14.44 55.3809 15.1C54.4909 15.75 53.4209 16.075 52.1709 16.075C51.1509 16.075 50.2359 15.85 49.4259 15.4C48.6259 14.94 48.0009 14.305 47.5509 13.495C47.1009 12.685 46.8759 11.76 46.8759 10.72ZM66.3116 5.47V7.525H63.5216V16H60.9566V7.525H58.1666V5.47H66.3116ZM70.1189 5.47V11.77C70.1189 12.4 70.2739 12.885 70.5839 13.225C70.8939 13.565 71.3489 13.735 71.9489 13.735C72.5489 13.735 73.0089 13.565 73.3289 13.225C73.6489 12.885 73.8089 12.4 73.8089 11.77V5.47H76.3739V11.755C76.3739 12.695 76.1739 13.49 75.7739 14.14C75.3739 14.79 74.8339 15.28 74.1539 15.61C73.4839 15.94 72.7339 16.105 71.9039 16.105C71.0739 16.105 70.3289 15.945 69.6689 15.625C69.0189 15.295 68.5039 14.805 68.1239 14.155C67.7439 13.495 67.5539 12.695 67.5539 11.755V5.47H70.1189Z" fill="#BFCDDA"/>
<defs>
<linearGradient id="paint0_linear_10_28" x1="0" y1="0" x2="17.6842" y2="11.3684" gradientUnits="userSpaceOnUse">
<stop stop-color="#7C79E0"/>
<stop offset="1" stop-color="#412DA8"/>
</linearGradient>
<linearGradient id="paint1_linear_10_28" x1="11.3684" y1="21.4737" x2="18.3158" y2="9.47369" gradientUnits="userSpaceOnUse">
<stop stop-color="#D62FF6"/>
<stop offset="1" stop-color="#C22AEA" stop-opacity="0"/>
</linearGradient>
</defs>
</svg>
