<svg width="36" height="32" viewBox="0 0 36 32" fill="none" xmlns="http://www.w3.org/2000/svg">
<path fill-rule="evenodd" clip-rule="evenodd" d="M0 0H9.25697L12.9598 6.47988C13.2683 7.09701 13.7003 8.70155 12.9598 10.1827C12.2192 11.6638 10.1827 14.5026 9.25697 15.7368L0 0ZM16.6625 0H35.1764L16.6625 31.4737L11.1083 24.0681L20.3653 10.1827C21.4662 7.98088 20.6032 6.76103 19.3334 4.96609C18.4677 3.74244 17.413 2.25151 16.6625 0Z" fill="url(#paint0_linear_10_11)"/>
<path fill-rule="evenodd" clip-rule="evenodd" d="M0 0H9.25697L12.9598 6.47988C13.2683 7.09701 13.7003 8.70155 12.9598 10.1827C12.2192 11.6638 10.1827 14.5026 9.25697 15.7368L0 0ZM16.6625 0H35.1764L16.6625 31.4737L11.1083 24.0681L20.3653 10.1827C21.4662 7.98088 20.6032 6.76103 19.3334 4.96609C18.4677 3.74244 17.413 2.25151 16.6625 0Z" fill="url(#paint1_linear_10_11)" fill-opacity="0.8"/>
<defs>
<linearGradient id="paint0_linear_10_11" x1="0" y1="0" x2="25.9195" y2="16.6625" gradientUnits="userSpaceOnUse">
<stop stop-color="#7C79E0"/>
<stop offset="1" stop-color="#412DA8"/>
</linearGradient>
<linearGradient id="paint1_linear_10_11" x1="16.6625" y1="31.4737" x2="26.8452" y2="13.8855" gradientUnits="userSpaceOnUse">
<stop stop-color="#D62FF6"/>
<stop offset="1" stop-color="#C22AEA" stop-opacity="0"/>
</linearGradient>
</defs>
</svg>
