<svg width="44" height="44" viewBox="0 0 44 44" fill="none" xmlns="http://www.w3.org/2000/svg">
<mask id="mask0_3_62" style="mask-type:alpha" maskUnits="userSpaceOnUse" x="0" y="0" width="44" height="44">
<path d="M22 25.6608C17.3536 25.6608 13.5696 21.8768 13.5696 17.2304C13.5696 12.584 17.3536 8.79999 22 8.79999C26.6464 8.79999 30.4304 12.584 30.4304 17.2304C30.4304 21.8768 26.6464 25.6608 22 25.6608ZM22 11.2024C18.6824 11.2024 15.9808 13.904 15.9808 17.2216C15.9808 20.5392 18.6824 23.2408 22 23.2408C25.3176 23.2408 28.0192 20.5392 28.0192 17.2216C28.0192 13.904 25.3176 11.2024 22 11.2024Z" fill="black"/>
<path d="M34.0472 35.2968H31.636C31.636 29.9816 27.3152 25.6608 22 25.6608C16.6848 25.6608 12.364 29.9816 12.364 35.2968H9.95279C9.95279 28.6528 15.356 23.2496 22 23.2496C28.644 23.2496 34.0472 28.6528 34.0472 35.2968Z" fill="black"/>
</mask>
<g mask="url(#mask0_3_62)">
<rect x="-1.75998" y="-3.51999" width="56.32" height="59.84" fill="#DBE9F6"/>
</g>
</svg>
