<svg width="25" height="25" viewBox="0 0 25 25" fill="none" xmlns="http://www.w3.org/2000/svg">
<mask id="mask0_1_315" style="mask-type:alpha" maskUnits="userSpaceOnUse" x="0" y="0" width="25" height="25">
<path d="M12.5001 14.58C9.86008 14.58 7.71008 12.43 7.71008 9.79C7.71008 7.15 9.86008 5 12.5001 5C15.1401 5 17.2901 7.15 17.2901 9.79C17.2901 12.43 15.1401 14.58 12.5001 14.58ZM12.5001 6.365C10.6151 6.365 9.08008 7.9 9.08008 9.785C9.08008 11.67 10.6151 13.205 12.5001 13.205C14.3851 13.205 15.9201 11.67 15.9201 9.785C15.9201 7.9 14.3851 6.365 12.5001 6.365Z" fill="black"/>
<path d="M19.345 20.055H17.975C17.975 17.035 15.52 14.58 12.5 14.58C9.48003 14.58 7.02503 17.035 7.02503 20.055H5.65503C5.65503 16.28 8.72503 13.21 12.5 13.21C16.275 13.21 19.345 16.28 19.345 20.055Z" fill="black"/>
</mask>
<g mask="url(#mask0_1_315)">
<rect x="-1" y="-2" width="32" height="34" fill="#B1AEAE"/>
</g>
</svg>
